<?xml version="1.0" encoding="UTF-8"?><svg id="a" xmlns="http://www.w3.org/2000/svg" xmlns:xlink="http://www.w3.org/1999/xlink" viewBox="0 0 1366 768"><defs><style>.e{fill:#0062b8;}.e,.f,.g,.h,.i,.j,.k,.l,.m{opacity:.2;}.f{fill:url(#d);}.g{fill:url(#c);}.h{fill:#003288;}.i{fill:#101798;}.j{fill:#003eaa;}.n{fill:#003788;opacity:.27;}.k{fill:#0986f0;}.l{fill:url(#b);}.m{fill:#000352;}</style><linearGradient id="b" x1="487.33" y1="628" x2="487.33" y2="622.68" gradientTransform="matrix(1, 0, 0, 1, 0, 0)" gradientUnits="userSpaceOnUse"><stop offset="0" stop-color="#cce0f4"/><stop offset=".06" stop-color="#c2dcf2"/><stop offset=".17" stop-color="#a9d2ee"/><stop offset=".31" stop-color="#7fc2e7"/><stop offset=".46" stop-color="#46abdd"/><stop offset=".57" stop-color="#1e9cd7"/><stop offset=".87" stop-color="#0075be"/><stop offset=".99" stop-color="#005b97"/></linearGradient><linearGradient id="c" x1="683" y1="424.69" x2="683" y2="0" xlink:href="#b"/><linearGradient id="d" x1="593.14" y1="504" x2="593.14" y2="319" xlink:href="#b"/></defs><path class="l" d="M499.6,627.91l-1.6,.09c-9.48-2.09-16.97-3.84-22.94-5.32,11.58,2.38,22.25,4.73,24.54,5.23Z"/><path class="l" d="M499.6,627.91l-1.6,.09c-9.48-2.09-16.97-3.84-22.94-5.32,11.58,2.38,22.25,4.73,24.54,5.23Z"/><path class="l" d="M499.6,627.91l-1.6,.09c-9.48-2.09-16.97-3.84-22.94-5.32,11.58,2.38,22.25,4.73,24.54,5.23Z"/><path class="g" d="M1366,0V337s-72,11-81,15-28,25-28,25h-27s-23,14-32,19-14,19-14,19l-30-5-38-17h-61l-62,22s-33-12-41-11-24,14-24,14l-24-14-19-1-28,20.5s-18.35,.16-36.72,1.19l-83.28-35.69-37,1s-57-28-64-33-9-14-9-14l-19,10s-15-17-22-23-24-11-24-11l-60,42-6,15-18,8-28-14s-81,43-84,39v1.98c-6.02-3.07-10-4.98-10-4.98l-35,5-39-36-25,9-38-33-69,22s-27-14-28-15-25,15-25,15L0,343V0H1366Z"/><path class="f" d="M820.28,424.69c-14.29,.79-28.59,2.12-34.28,4.31-13,5-7,8-15,13s-54,10-73,17-53,28-53,28l-16-1s0,8-6,13-41,5-41,5c0,0-14-8-19-14s-100-39-100-39c0,0-31,8-43-6-8.68-10.13-38.28-26-54-34.02v-1.98c3,4,84-39,84-39l28,14,18-8,6-15,60-42s17,5,24,11,22,23,22,23l19-10s2,9,9,14,64,33,64,33l37-1,83.28,35.69Z"/><path class="e" d="M1366,337v19l-81,55-45-7-77,62-31-11-33,20.6h-42l-61-30.6s-26,21-40,30.6c-14,9.61-49,24.4-59,20.62-10-3.78-47-7.22-61-7.22-4.58,0-9.91-1.43-15-3.37-10.49-3.96-20-10.03-20-10.03,0,0-33-18.6-50-14.6s-49,37-49,37c0,0-22-3-42,0s-64,34-64,34v.59c-8.33-.73-16.24-1.38-22-3.59-13-5-28-15-28-15l-20,7-26-19-34-5s-79-31-90-34c-1.92-.52-5.46-1.42-10-2.53-21.42-5.26-65-15.47-65-15.47,0,0-54,18-62,18s-37-9-47-10-20,0-20,0l-68-42L0,394v-51l97,30s24-16,25-15,28,15,28,15l69-22,38,33,25-9,39,36,35-5s3.98,1.91,10,4.98c15.72,8.02,45.32,23.89,54,34.02,12,14,43,6,43,6,0,0,95,33,100,39s19,14,19,14c0,0,35,0,41-5s6-13,6-13l16,1s34-21,53-28,65-12,73-17,2-8,15-13c5.69-2.19,19.99-3.52,34.28-4.31,18.37-1.03,36.72-1.19,36.72-1.19l28-20.5,19,1,24,14s16-13,24-14,41,11,41,11l62-22h61l38,17,30,5s5-14,14-19,32-19,32-19h27s19-21,28-25,81-15,81-15Z"/><path class="n" d="M794.47,600.03s-3.91,.35-10.11,.91c-.04,0-.07,.01-.11,.01-17.86,2.47-66.08,8.86-82.25,8.05-2.18-.11-4.69-.13-7.44-.1-.08,0-.15,.01-.22,.01-6.45,.4-15.29,.9-24.39,1.38-.05,.01-.09,.01-.14,.01-13.95,1.15-27.45,2.7-33.07,3.36,5.92,.99,14.02,2.42,19.9,3.77l10.36,1.57-4,.21c1.47,.6,1.78,1.11,.31,1.46-3.33,.78-33.67,2.24-67.31,3.65-45.02,1.89-95.95,3.69-95.95,3.69,0,0-.15-.03-.43-.1h-.02c-2.29-.5-12.96-2.85-24.54-5.23-.08-.02-.15-.03-.23-.05-13.01-2.68-27.09-5.4-31.65-5.63-3.19-.16-15.71-1.1-29.62-2h-40.56l-2.11,.07h-.01l-5.24,.19h-.01c-31.39-10.31-89.83-37.7-89.83-37.7,0,0-38.07-19.26-131.62-21.1,0,0-33.48-23.38-44.03-27.51-10.54-4.13-100.15-9.17-100.15-9.17v-125.78l104,17,68,42s10-1,20,0,39,10,47,10,62-18,62-18c0,0,43.58,10.21,65,15.47,4.54,1.11,8.08,2.01,10,2.53,11,3,90,34,90,34l34,5,26,19,20-7s15,10,28,15c5.76,2.21,13.67,2.86,22,3.59,10.49,.91,21.64,1.95,30,6.41,2.32,1.24,4.61,2.59,6.83,4,12.16,7.7,22.17,17,22.17,17l28-5s48-1,59,5c5.82,3.17,14.71,7.18,20.17,10.56,2.58,1.59,4.4,3.04,4.76,4.19l6.45,2.81-65.38,10.76c.43,.29,.98,.67,1.68,1.13h.04c13.46,.03,37.83,.35,39.81,2.33,.29,.29,.5,.53,.66,.72l37.24,6.85h.08l6.96,.68Z"/><path class="i" d="M1366,474.9v104.49s-104.68,62.37-106.51,61c-1.83-1.38-59.62-46.78-59.62-46.78l-56.41,4.59-7.95,8.3-64.96,67.82-196.28,26.6s-12.14-.17-27.23-.37l-.75-15.22s-43.56-4.13-49.98-3.21-20.18,4.13-24.31,3.21l-4.13-.92s-36.69,7.8-44.48,7.8h-74.29s6.42-9.63,11-11.92c4.59-2.3,17.89-5.05,17.89-5.05,0,0-39.77,.64-81.99,1.31-45.33,.7-93.49,1.44-98.24,1.44-9.17,0-31.19-4.58-32.1-6.42-.92-1.83,15.13-7.79,33.93-10.09,9.47-1.15,53.31-3.94,96.41-6.42,42.41-2.43,84.11-4.58,91.62-4.58,15.13,0,44.48-18.8,44.48-18.8,271.49-23.85,301.76-34.4,301.76-34.4,0,0,7.24-.63,13.81-1.59,1.13-1.53,2.61-3.14,4.38-4.79,19.32-18.02,73.41-41.95,87.52-48.19,38.21-16.91,33.98-8.27,120.38-37.84,28.85-9.87,58.82-16.09,88.05-24.76,6.43-1.91,12.49-3.73,18-5.21Z"/><path class="j" d="M1366,356v118.9c-5.51,1.48-11.57,3.3-18,5.21-29.23,8.67-59.2,14.89-88.05,24.76-86.4,29.57-82.17,20.93-120.38,37.84-14.11,6.24-68.2,30.17-87.52,48.19-3.4-.49-8.4-.97-15.44-1.42l-49.99-3.21-93.09,2.76s15.59-5.51,10.55-7.8c-5.05-2.29-121.99,0-121.99,0,0,0,38.06-10.55,16.51-10.09l-21.56,.46s-10.44-1.35-14.87-1.04c-5.46-3.38-14.35-7.39-20.17-10.56-11-6-59-5-59-5l-28,5s-10.01-9.3-22.17-17c-2.22-1.41-4.51-2.76-6.83-4-8.36-4.46-19.51-5.5-30-6.41v-.59s44-31,64-34,42,0,42,0c0,0,32-33,49-37s50,14.6,50,14.6c0,0,9.51,6.07,20,10.03,5.09,1.94,10.42,3.37,15,3.37,14,0,51,3.44,61,7.22,10,3.78,45-11.01,59-20.62,14-9.6,40-30.6,40-30.6l61,30.6h42l33-20.6,31,11,77-62,45,7,81-55Z"/><path class="m" d="M1366,579.39v188.61H0v-140l79.65-2.78s0,.01,0,0c.56,.19,1.13,.35,1.69,.49,20.18,5.05,80.26,4.13,91.26,8.72,11.01,4.58,32.1,27.51,51.82,33.93,2.32,.76,5.29,1.36,8.75,1.84,11.33,1.59,27.99,1.89,45.04,2.06,22.01,.23,44.65,.24,57.19,2.52l25.23,4.59s103.64,42.65,127.03,40.81c23.39-1.83,81.63-22.93,92.64-22.01,2.53,.21,8.24,1.45,15.69,3.24,24.93,5.99,69.35,18.17,79.24,18.83,12.84,.86,101.8-20.23,118.31-20.23,9.33,0,33.89,.29,53.49,.54,15.09,.2,27.23,.37,27.23,.37l196.28-26.6,64.96-67.82,7.95-8.3,56.41-4.59s57.79,45.4,59.62,46.78c1.83,1.37,106.51-61,106.51-61Z"/><path class="h" d="M485.38,648.18s-4.1,.53-11.88,1.31l-7.84,1.9-171.65,7.97-6.29,.29-38.06,10.55h-16.48c-3.46-.48-6.43-1.08-8.75-1.84-19.72-6.42-40.81-29.35-51.82-33.93-11-4.59-71.08-3.67-91.26-8.72-.56-.14-1.13-.3-1.69-.49t0,0l-79.65,2.78v-108.22s89.61,5.04,100.15,9.17c10.55,4.13,44.03,27.51,44.03,27.51,93.55,1.84,131.62,21.1,131.62,21.1,0,0,58.44,27.39,89.83,37.7h.01l5.24-.19h.01c.59,.17,1.3,.35,2.13,.55l25.22,5.97,.18,.35,3.49,.56,2.29,9.63s4.59,5.97,7.8,7.34c3.21,1.38,70.62,7.8,70.62,7.8l-2.07,.5c3.03,.26,4.83,.41,4.83,.41Z"/><path class="l" d="M499.6,627.91l-1.6,.09c-9.48-2.09-16.97-3.84-22.94-5.32,11.58,2.38,22.25,4.73,24.54,5.23Z"/><path class="k" d="M1052.05,590.9c-1.77,1.65-3.25,3.26-4.38,4.79-6.57,.96-13.81,1.59-13.81,1.59,0,0-30.27,10.55-301.76,34.4,0,0-29.35,18.8-44.48,18.8-7.51,0-49.21,2.15-91.62,4.58-43.1,2.48-86.94,5.27-96.41,6.42-18.8,2.3-34.85,8.26-33.93,10.09,.91,1.84,22.93,6.42,32.1,6.42,4.75,0,52.91-.74,98.24-1.44,42.22-.67,81.99-1.31,81.99-1.31,0,0-13.3,2.75-17.89,5.05-4.58,2.29-11,11.92-11,11.92h74.29c7.79,0,44.48-7.8,44.48-7.8l4.13,.92c4.13,.92,17.89-2.29,24.31-3.21s49.98,3.21,49.98,3.21l.75,15.22c-19.6-.25-44.16-.54-53.49-.54-16.51,0-105.47,21.09-118.31,20.23-9.89-.66-54.31-12.84-79.24-18.83-7.45-1.79-13.16-3.03-15.69-3.24-11.01-.92-69.25,20.18-92.64,22.01-23.39,1.84-127.03-40.81-127.03-40.81l-25.23-4.59c-12.54-2.28-35.18-2.29-57.19-2.52-17.05-.17-33.71-.47-45.04-2.06h16.48l38.06-10.55,6.29-.29,171.65-7.97,7.84-1.9c7.78-.78,11.88-1.31,11.88-1.31,0,0-1.8-.15-4.83-.41l2.07-.5s-67.41-6.42-70.62-7.8c-3.21-1.37-7.8-7.34-7.8-7.34l-2.29-9.63-3.49-.56-.18-.35-25.22-5.97c-.83-.2-1.54-.38-2.13-.55l2.11-.07h40.56c13.91,.9,26.43,1.84,29.62,2,4.56,.23,18.64,2.95,31.65,5.63,.08,.02,.15,.03,.23,.05,5.97,1.48,13.46,3.23,22.94,5.32l1.6-.09h.02c.28,.07,.43,.1,.43,.1,0,0,50.93-1.8,95.95-3.69,33.64-1.41,63.98-2.87,67.31-3.65,1.47-.35,1.16-.86-.31-1.46l4-.21-10.36-1.57c-5.88-1.35-13.98-2.78-19.9-3.77,5.62-.66,19.12-2.21,33.07-3.36,.05,0,.09,0,.14-.01,9.1-.48,17.94-.98,24.39-1.38,.07,0,.14-.01,.22-.01,2.75-.03,5.26,0,7.44,.1,16.17,.81,64.39-5.58,82.25-8.05,.04,0,.07-.01,.11-.01,6.2-.56,10.11-.91,10.11-.91l-6.96-.67h-.08l-37.24-6.86c-.16-.19-.37-.43-.66-.72-1.98-1.98-26.35-2.3-39.81-2.33h-.04c-.7-.46-1.25-.84-1.68-1.13l65.38-10.76-6.45-2.81c-.36-1.15-2.18-2.6-4.76-4.19,4.43-.31,14.87,1.04,14.87,1.04l21.56-.46c21.55-.46-16.51,10.09-16.51,10.09,0,0,116.94-2.29,121.99,0,5.04,2.29-10.55,7.8-10.55,7.8l93.09-2.76,49.99,3.21c7.04,.45,12.04,.93,15.44,1.42Z"/></svg>